<svg xmlns="http://www.w3.org/2000/svg" viewBox="0 0 512 512"><g class="nc-icon-wrapper"><path d="M440 256h-16a8 8 0 0 0-8 8v200a16 16 0 0 1-16 16H48a16 16 0 0 1-16-16V112a16 16 0 0 1 16-16h200a8 8 0 0 0 8-8V72a8 8 0 0 0-8-8H48a48 48 0 0 0-48 48v352a48 48 0 0 0 48 48h352a48 48 0 0 0 48-48V264a8 8 0 0 0-8-8zM500 0L364 .34a12 12 0 0 0-12 12v10a12 12 0 0 0 12 12l90-.34.7.71-323.19 323.15a12 12 0 0 0 0 17l5.66 5.66a12 12 0 0 0 17 0L477.29 57.34l.71.7-.34 90a12 12 0 0 0 12 12h10a12 12 0 0 0 12-12L512 12a12 12 0 0 0-12-12z"/></g></svg>