<svg width="407" height="406" xmlns="http://www.w3.org/2000/svg">
  <g fill="#FAF9FE" fill-rule="nonzero">
    <path d="M347 174.732h-26.896A118.9 118.9 0 00305.8 140.18l19.012-19.016a6.996 6.996 0 000-9.9l-30.08-30.08a7.2 7.2 0 00-9.9 0L265.824 100.2a118.972 118.972 0 00-34.552-14.304V59a7 7 0 00-7-7h-42.54a7 7 0 00-7 7v26.896a118.972 118.972 0 00-34.556 14.304l-19.012-19.012a6.996 6.996 0 00-9.9 0l-30.08 30.08a6.996 6.996 0 000 9.9L100.2 140.18a118.9 118.9 0 00-14.304 34.552H59a7 7 0 00-7 7v42.536a7 7 0 007 7h26.896A118.9 118.9 0 00100.2 265.82l-19.012 19.016a6.996 6.996 0 000 9.9l30.08 30.08a7.2 7.2 0 009.9 0l19.008-19.016a118.972 118.972 0 0034.552 14.304V347a7 7 0 007 7h42.54a7 7 0 007-7v-26.896a118.972 118.972 0 0034.556-14.304l19.012 19.012a6.996 6.996 0 009.9 0l30.08-30.08a6.996 6.996 0 000-9.9L305.8 265.82a118.9 118.9 0 0014.304-34.552H347a7 7 0 007-7v-42.536a7 7 0 00-7-7zm-7 42.536h-25.552a7 7 0 00-6.876 5.696 105.344 105.344 0 01-16.504 39.872 6.996 6.996 0 00.836 8.888l18.06 18.076-20.164 20.164-18.06-18.064a6.996 6.996 0 00-8.888-.836 105.272 105.272 0 01-39.868 16.504 7.004 7.004 0 00-5.696 6.88V340h-28.556v-25.552a7.004 7.004 0 00-5.696-6.88 105.272 105.272 0 01-39.868-16.504 7 7 0 00-8.888.836l-18.08 18.064L96.036 289.8l18.06-18.064a6.996 6.996 0 00.836-8.888 105.344 105.344 0 01-16.504-39.872 7 7 0 00-6.876-5.696H66v-28.548h25.552a7 7 0 006.876-5.696 105.344 105.344 0 0116.504-39.872 6.996 6.996 0 00-.836-8.888L96.036 116.2 116.2 96.036l18.06 18.064a6.984 6.984 0 008.888.836 105.272 105.272 0 0139.868-16.504 7.004 7.004 0 005.696-6.88V66h28.54v25.552a7.004 7.004 0 005.696 6.88 105.272 105.272 0 0139.868 16.504 6.984 6.984 0 008.888-.836L289.8 96.036l20.164 20.164-18.06 18.064a6.996 6.996 0 00-.836 8.888 105.344 105.344 0 0116.504 39.872 7 7 0 006.876 5.696H340v28.548z"/>
    <path d="M203 121.268c-45.14 0-81.732 36.593-81.732 81.732 0 45.14 36.593 81.732 81.732 81.732 45.14 0 81.732-36.593 81.732-81.732-.05-45.118-36.614-81.681-81.732-81.732zm0 149.46c-27.395 0-52.093-16.503-62.577-41.813-10.483-25.31-4.687-54.443 14.685-73.814 19.372-19.371 48.505-25.165 73.815-14.68 25.31 10.485 41.81 35.184 41.809 62.579-.04 37.39-30.341 67.692-67.732 67.732v-.004z"/>
    <path d="M203 143.156c-24.205-.002-46.028 14.578-55.291 36.94-9.264 22.362-4.145 48.103 12.97 65.219 17.114 17.116 42.855 22.237 65.217 12.974 22.363-9.262 36.944-31.084 36.944-55.289-.037-33.034-26.806-59.804-59.84-59.844zm0 105.688A45.844 45.844 0 11248.84 203c-.029 25.306-20.534 45.813-45.84 45.844zM14 203c-.001-9.74.742-19.466 2.224-29.092a7 7 0 00-13.836-2.14A205.283 205.283 0 000 203a201.452 201.452 0 0039.172 119.9 7 7 0 0011.292-8.272A187.544 187.544 0 0114 203z"/>
    <path d="M36.336 203a7 7 0 00-14 0 179.488 179.488 0 0052.916 127.752 7 7 0 009.9-9.9A165.6 165.6 0 0136.336 203zM314.624 355.536A187.548 187.548 0 01203 392a191.28 191.28 0 01-29.096-2.228 7 7 0 10-2.136 13.836 205.24 205.24 0 0031.236 2.4 201.452 201.452 0 00119.9-39.176 7 7 0 10-8.276-11.288l-.004-.008z"/>
    <path d="M320.848 320.852A165.6 165.6 0 01203 369.664a7 7 0 000 14c47.94.13 93.94-18.922 127.748-52.912a7 7 0 10-9.9-9.9zM366.828 83.1a7 7 0 00-11.292 8.272A187.544 187.544 0 01392 203c.001 9.74-.742 19.466-2.224 29.092a7 7 0 006.924 8.084 7.004 7.004 0 006.912-5.928 205.316 205.316 0 002.4-31.236A201.452 201.452 0 00366.828 83.1z"/>
    <path d="M320.848 75.252a6.996 6.996 0 000 9.9A165.6 165.6 0 01369.664 203a7 7 0 0014 0 179.488 179.488 0 00-52.916-127.748 6.996 6.996 0 00-9.9 0zM87.244 51.82a6.975 6.975 0 004.132-1.356A187.548 187.548 0 01203 14c9.741 0 19.468.746 29.096 2.228a7 7 0 102.136-13.836A205.24 205.24 0 00203 0 201.452 201.452 0 0083.1 39.176a7 7 0 004.144 12.644z"/>
    <path d="M80.2 87.2a6.976 6.976 0 004.948-2.052A165.6 165.6 0 01203 36.336a7 7 0 000-14A179.488 179.488 0 0075.252 75.252 7 7 0 0080.2 87.2z"/>
  </g>
</svg>
